<?xml version="1.0" standalone="no"?><!DOCTYPE svg PUBLIC "-//W3C//DTD SVG 1.1//EN" "http://www.w3.org/Graphics/SVG/1.1/DTD/svg11.dtd"><svg t="1591061327811" class="icon" viewBox="0 0 1024 1024" version="1.1" xmlns="http://www.w3.org/2000/svg" p-id="2783" xmlns:xlink="http://www.w3.org/1999/xlink" width="32" height="32"><defs><style type="text/css"></style></defs><path d="M480 960h-192C198.4 960 128 889.6 128 800v-640C128 70.4 198.4 0 288 0h512C889.6 0 960 70.4 960 160v320c0 19.2-12.8 32-32 32s-32-12.8-32-32v-320c0-51.2-44.8-96-96-96h-512C236.8 64 192 108.8 192 160v640c0 51.2 44.8 96 96 96h192c19.2 0 32 12.8 32 32s-12.8 32-32 32zM768 288c0-19.2-12.8-32-32-32h-384c-19.2 0-32 12.8-32 32s12.8 32 32 32h384c19.2 0 32-12.8 32-32z m-128 192c0-19.2-12.8-32-32-32h-256c-19.2 0-32 12.8-32 32s12.8 32 32 32h256c19.2 0 32-12.8 32-32z m192 448v-320c0-19.2-12.8-32-32-32s-32 12.8-32 32v320c0 19.2 12.8 32 32 32s32-12.8 32-32z m160-160c0-19.2-12.8-32-32-32h-320c-19.2 0-32 12.8-32 32s12.8 32 32 32h320c19.2 0 32-12.8 32-32z" fill="" p-id="2784"></path></svg>